<svg xmlns="http://www.w3.org/2000/svg" viewBox="0 0 512 512">
  <rect x="80" y="60" width="352" height="420" rx="30" fill="#9FB4FF" />
  <rect x="110" y="90" width="292" height="360" rx="10" fill="#FFFFFF" />
  
  <rect x="196" y="30" width="120" height="60" rx="15" fill="#4A4A5E" />
  <rect x="226" y="45" width="60" height="15" rx="5" fill="#6B6B83" />

  <rect x="140" y="140" width="50" height="50" rx="8" fill="#FF8A75" />
  <polyline points="150,165 160,175 180,155" fill="none" stroke="white" stroke-width="8" stroke-linecap="round" stroke-linejoin="round" />
  <rect x="210" y="150" width="150" height="10" rx="5" fill="#E0E0E0" />
  <rect x="210" y="170" width="100" height="10" rx="5" fill="#E0E0E0" />

  <rect x="140" y="220" width="50" height="50" rx="8" fill="#5CC1A9" />
  <polyline points="150,245 160,255 180,235" fill="none" stroke="white" stroke-width="8" stroke-linecap="round" stroke-linejoin="round" />
  <rect x="210" y="230" width="150" height="10" rx="5" fill="#E0E0E0" />
  <rect x="210" y="250" width="100" height="10" rx="5" fill="#E0E0E0" />

  <rect x="140" y="300" width="50" height="50" rx="8" fill="#FFD54F" />
  <polyline points="150,325 160,335 180,315" fill="none" stroke="white" stroke-width="8" stroke-linecap="round" stroke-linejoin="round" />
  <rect x="210" y="310" width="150" height="10" rx="5" fill="#E0E0E0" />
  <rect x="210" y="330" width="100" height="10" rx="5" fill="#E0E0E0" />

  <rect x="140" y="380" width="50" height="50" rx="8" fill="#4A4A5E" />
  <polyline points="150,405 160,415 180,395" fill="none" stroke="white" stroke-width="8" stroke-linecap="round" stroke-linejoin="round" />
  <rect x="210" y="390" width="150" height="10" rx="5" fill="#E0E0E0" />
  <rect x="210" y="410" width="100" height="10" rx="5" fill="#E0E0E0" />
</svg>
